<svg id="Camada_1" data-name="Camada 1" xmlns="http://www.w3.org/2000/svg" viewBox="0 0 25.96 29.1"><defs><style>.cls-1{fill:#fdba12;}</style></defs><path class="cls-1" d="M23,29.1H3a7.65,7.65,0,0,1-1-.3,3.35,3.35,0,0,1-2-3.23V9c0-.85,0-1.69,0-2.53A3.35,3.35,0,0,1,3.16,3.17c.44,0,.88,0,1.33,0,0-.49,0-.93.07-1.36A2.11,2.11,0,0,1,6.93,0a2.14,2.14,0,0,1,1.83,2c0,.35,0,.71,0,1.07H11c0-.4,0-.78,0-1.16a2.11,2.11,0,0,1,4.21,0c0,.4,0,.8.06,1.2H17.4c0-.44,0-.87.07-1.29A2.11,2.11,0,0,1,19.82,0a2.15,2.15,0,0,1,1.85,2c0,.37,0,.74,0,1.13h.76a3.43,3.43,0,0,1,1.82.46A3.38,3.38,0,0,1,26,6.7q0,9.42,0,18.84v.29a3.25,3.25,0,0,1-1.6,2.75A8.88,8.88,0,0,1,23,29.1ZM2,8.15V25.52a1.43,1.43,0,0,0,1.6,1.59H22.36A1.43,1.43,0,0,0,24,25.52V8.15Zm5.58-4h0V2.23a1,1,0,0,0-.92-1,1,1,0,0,0-1,1c0,1.29,0,2.59,0,3.89A1,1,0,0,0,6.26,7a.93.93,0,0,0,1.31-.9C7.59,5.46,7.58,4.81,7.58,4.16Zm12.91,0h0c0-.64,0-1.28,0-1.93a.93.93,0,1,0-1.86,0c0,1.31,0,2.61,0,3.92a1,1,0,0,0,.55.9.93.93,0,0,0,1.31-.89C20.5,5.47,20.49,4.82,20.49,4.16Zm-8.31,0h0c0,.68,0,1.37,0,2.05A.92.92,0,0,0,14,6.27,1.71,1.71,0,0,0,14,6V2.35A1.72,1.72,0,0,0,14,2a.9.9,0,0,0-.6-.7.91.91,0,0,0-1.22.87C12.16,2.8,12.18,3.47,12.18,4.14Z"/><path class="cls-1" d="M22.14,14.93H18.51V11.69h3.63Z"/><path class="cls-1" d="M7.45,14.94H3.82V11.7H7.45Z"/><path class="cls-1" d="M7.44,19.29H3.82V16.05H7.44Z"/><path class="cls-1" d="M22.15,19.28H18.51V16.06h3.64Z"/><path class="cls-1" d="M8.71,14.93V11.7h3.64v3.23Z"/><path class="cls-1" d="M17.24,14.94H13.62V11.69h3.62Z"/><path class="cls-1" d="M12.34,19.28H8.72V16.05h3.62Z"/><path class="cls-1" d="M17.24,16.05v3.23H13.62V16.05Z"/><path class="cls-1" d="M3.81,23.63V20.42H7.45v3.21Z"/><path class="cls-1" d="M22.15,20.42v3.21H18.51V20.42Z"/><path class="cls-1" d="M8.72,20.41h3.62v3.23H8.72Z"/><path class="cls-1" d="M13.62,20.41h3.62v3.23H13.62Z"/></svg>