<svg xmlns="http://www.w3.org/2000/svg" xmlns:xlink="http://www.w3.org/1999/xlink" viewBox="0 0 340.53 65"><defs><style>.cls-1{isolation:isolate;}.cls-2{fill:#fdba12;}.cls-11,.cls-3,.cls-5,.cls-6,.cls-7,.cls-8,.cls-9{opacity:0.5;}.cls-3{fill:url(#radial-gradient);}.cls-4{fill:url(#radial-gradient-2);}.cls-11,.cls-5,.cls-6,.cls-9{mix-blend-mode:screen;}.cls-5{fill:url(#radial-gradient-3);}.cls-6{fill:url(#radial-gradient-4);}.cls-7,.cls-8{mix-blend-mode:multiply;}.cls-7{fill:url(#radial-gradient-5);}.cls-8{fill:url(#radial-gradient-6);}.cls-10{fill:url(#radial-gradient-7);}.cls-11{fill:url(#radial-gradient-8);}</style><radialGradient id="radial-gradient" cx="315.04" cy="21.06" r="20.61" gradientUnits="userSpaceOnUse"><stop offset="0.06" stop-color="#3e8def"/><stop offset="0.24" stop-color="#3e8eef" stop-opacity="0.99"/><stop offset="0.37" stop-color="#3f91ef" stop-opacity="0.95"/><stop offset="0.48" stop-color="#4097ef" stop-opacity="0.88"/><stop offset="0.58" stop-color="#429fef" stop-opacity="0.79"/><stop offset="0.68" stop-color="#45a9ef" stop-opacity="0.67"/><stop offset="0.77" stop-color="#48b5ef" stop-opacity="0.52"/><stop offset="0.86" stop-color="#4bc4ee" stop-opacity="0.35"/><stop offset="0.95" stop-color="#4fd5ee" stop-opacity="0.15"/><stop offset="1" stop-color="#52e1ee" stop-opacity="0"/></radialGradient><radialGradient id="radial-gradient-2" cx="309.06" cy="12.37" r="33.32" gradientUnits="userSpaceOnUse"><stop offset="0" stop-color="#cae1ee"/><stop offset="0.34" stop-color="#52e1ee"/><stop offset="0.94" stop-color="#3e8def"/></radialGradient><radialGradient id="radial-gradient-3" cx="311.22" cy="9.11" r="25.23" gradientUnits="userSpaceOnUse"><stop offset="0" stop-color="#52e1ee"/><stop offset="0.94" stop-color="#3e8def"/></radialGradient><radialGradient id="radial-gradient-4" cx="548.5" cy="-283.74" r="25.23" gradientTransform="translate(-52.92 514.14) rotate(-27.07)" xlink:href="#radial-gradient-3"/><radialGradient id="radial-gradient-5" cx="324.64" cy="20.8" r="63.74" xlink:href="#radial-gradient-3"/><radialGradient id="radial-gradient-6" cx="776.53" cy="-390.37" r="63.74" gradientTransform="matrix(0.73, -0.69, 0.69, 0.73, 27.73, 831.61)" xlink:href="#radial-gradient-3"/><radialGradient id="radial-gradient-7" cx="314.51" cy="20.13" r="21.01" xlink:href="#radial-gradient-3"/><radialGradient id="radial-gradient-8" cx="314.42" cy="19.98" r="19.84" xlink:href="#radial-gradient-3"/></defs><g class="cls-1"><g id="Camada_1" data-name="Camada 1"><path class="cls-2" d="M.42,18.09a8,8,0,0,1,3.66-6.62,13.78,13.78,0,0,1,8.41-2.59h4.33a17.13,17.13,0,0,1,7.64,1.82,11.09,11.09,0,0,1,2.46,1.7l-5.69,4.38a5.23,5.23,0,0,0-3.82-2.25,4,4,0,0,0-.59,0H12.49a6.13,6.13,0,0,0-4.8,1.79A2.88,2.88,0,0,0,7,18.09q0,1.66,3.53,2.85c.74.25,2,.61,3.74,1.06a35.26,35.26,0,0,1,8.91,3.23c2.78,1.7,4.18,3.93,4.21,6.71,0,2.57-1.25,4.77-3.74,6.58a14.64,14.64,0,0,1-8.75,2.63H10.53a18.57,18.57,0,0,1-8-1.82A10.53,10.53,0,0,1,0,37.63L5.61,33.3a6,6,0,0,0,4.16,2.2,7.42,7.42,0,0,0,.76,0h4.33A6.81,6.81,0,0,0,20,33.72a2.63,2.63,0,0,0,.77-1.78q0-1.87-3.53-3.1-.51-.21-6.15-1.74-6.51-1.74-8.84-4.21A6.9,6.9,0,0,1,.42,18.09Z"/><path class="cls-2" d="M40.73,8.88l-3.49,5.6H30.83V8.88ZM46,41.15H39.49V14.57A5.29,5.29,0,0,1,42,10a6.34,6.34,0,0,1,3.69-1.14h9.64v5.6H46Z"/><path class="cls-2" d="M76,36.86H61.88l3.48-5.6h8.7L68.54,15.42l-9,25.73h-7l9.47-27q2.09-5.64,6.5-5.69T75,14.14l9.51,27h-7Z"/><path class="cls-2" d="M94.62,14.48V41.15h-6.5V14.57A5.3,5.3,0,0,1,90.58,10a6.5,6.5,0,0,1,3.65-1.1H103a12.89,12.89,0,0,1,9.47,3.52,10.1,10.1,0,0,1,3,7.43v1.24a9.86,9.86,0,0,1-4.37,8.57,12.47,12.47,0,0,1-3.66,1.74l8.75,9.77h-8.11L100.05,32H95l3.48-5.6H103c2.66,0,4.45-.92,5.39-2.76a5.89,5.89,0,0,0,.55-2.59V19.83a4.74,4.74,0,0,0-3.44-5,7.71,7.71,0,0,0-2.5-.39Z"/><path class="cls-2" d="M142.18,8.88l-3.48,5.6h-6.41V8.88Zm5.31,32.27H141V14.57A5.28,5.28,0,0,1,143.41,10a6.4,6.4,0,0,1,3.7-1.14h9.64v5.6h-9.26Z"/><path class="cls-2" d="M167.62,14.48V41.15h-6.5V14.57A5.3,5.3,0,0,1,163.58,10a6.53,6.53,0,0,1,3.66-1.1H176a12.89,12.89,0,0,1,9.47,3.52,10.1,10.1,0,0,1,3,7.43v1.24a9.86,9.86,0,0,1-4.37,8.57,12.53,12.53,0,0,1-3.65,1.74l8.74,9.77h-8.11L173.05,32h-5l3.49-5.6H176q4,0,5.39-2.76a5.89,5.89,0,0,0,.55-2.59V19.83a4.73,4.73,0,0,0-3.44-5,7.71,7.71,0,0,0-2.5-.39Z"/><path class="cls-2" d="M200.06,28v7.56h16.65l3.06,5.6H199.68a6.06,6.06,0,0,1-5-2.33,5.37,5.37,0,0,1-1.19-3.36V14.57A5.27,5.27,0,0,1,196,10a6.34,6.34,0,0,1,3.69-1.14h20.09l-3.06,5.6H200.06v7.9h15.33V28Z"/><path class="cls-2" d="M224.78,8.88h6.58v13.5h4.16l8.24-13.5h7.39L240.92,25l10.7,16.14h-7.43L235.74,28h-4.38V41.15h-6.58Z"/><path class="cls-2" d="M254.72,18.09a8,8,0,0,1,3.65-6.62,13.78,13.78,0,0,1,8.41-2.59h4.33a17.2,17.2,0,0,1,7.65,1.82,11.33,11.33,0,0,1,2.46,1.7l-5.69,4.38a5.26,5.26,0,0,0-3.82-2.25,4,4,0,0,0-.6,0h-4.33a6.16,6.16,0,0,0-4.8,1.79,2.87,2.87,0,0,0-.72,1.82q0,1.66,3.52,2.85c.74.25,2,.61,3.74,1.06a35.37,35.37,0,0,1,8.92,3.23c2.77,1.7,4.17,3.93,4.2,6.71,0,2.57-1.24,4.77-3.73,6.58a14.66,14.66,0,0,1-8.75,2.63h-4.33a18.61,18.61,0,0,1-8-1.82,10.94,10.94,0,0,1-2.55-1.7l5.61-4.33a6,6,0,0,0,4.16,2.2,7.42,7.42,0,0,0,.77,0h4.33a6.83,6.83,0,0,0,5.18-1.83,2.62,2.62,0,0,0,.76-1.78q0-1.87-3.52-3.1-.51-.21-6.16-1.74-6.5-1.74-8.83-4.21A6.86,6.86,0,0,1,254.72,18.09Z"/><circle class="cls-3" cx="314.69" cy="20.58" r="20.58"/><circle class="cls-4" cx="314.69" cy="20.58" r="16.68"/><path class="cls-5" d="M299.71,22.28A16.68,16.68,0,0,1,327.37,9.72a16.68,16.68,0,1,0-23.53,23.53A16.58,16.58,0,0,1,299.71,22.28Z"/><path class="cls-6" d="M302.09,28.83A16.68,16.68,0,0,1,321,5.06a16.68,16.68,0,1,0-10.24,31.67A16.61,16.61,0,0,1,302.09,28.83Z"/><path class="cls-7" d="M322.12,5.64a13.87,13.87,0,1,1-22.88,10.55,14.45,14.45,0,0,1,.21-2.39,16.69,16.69,0,1,0,22.67-8.16Z"/><path class="cls-8" d="M309.67,4.51a13.87,13.87,0,1,1-9.32,23.4A14.54,14.54,0,0,1,298.86,26,16.68,16.68,0,1,0,309.67,4.51Z"/><g class="cls-9"><path class="cls-10" d="M340.26,7.64c-1-2.12-4.47-2.41-10.54-.9-1.35.34-2.81.77-4.32,1.26a10.27,10.27,0,0,1,1.05.93,13,13,0,0,1,1.29,1.28c.7-.21,1.38-.41,2-.58,6.09-1.61,7.68-.91,7.94-.75,0,.29-.48,2-5.51,5.76A99.1,99.1,0,0,1,316.38,24a99.3,99.3,0,0,1-17.15,6.63c-6.08,1.61-7.68.91-7.94.76,0-.3.48-2,5.51-5.77.55-.41,1.14-.83,1.75-1.25a9,9,0,0,1-.48-3.08c-1.26.84-2.44,1.68-3.5,2.5-4.94,3.82-6.85,6.71-5.82,8.83.6,1.23,2,1.85,4.3,1.85a27,27,0,0,0,6.24-1,100,100,0,0,0,18.32-7,100,100,0,0,0,16.83-10C339.38,12.65,341.29,9.76,340.26,7.64Z"/></g><path class="cls-11" d="M318.06,24.51c19.81-9.44,22.72-15.51,20.63-17s-7.91.08-12,1.63a13.76,13.76,0,0,1,1.08,1.08c.7-.21,1.38-.41,2-.58,6.09-1.61,7.68-.91,7.94-.75,0,.29-.48,2-5.51,5.76A99.1,99.1,0,0,1,316.38,24a99.3,99.3,0,0,1-17.15,6.63c-6.08,1.61-7.68.91-7.94.76,0-.3.48-2,5.51-5.77.55-.41,1.14-.83,1.75-1.25a9.39,9.39,0,0,1-.42-1.93c-2.24,1.6-10.05,7.41-8.29,9.37C291.89,34.07,298.26,34,318.06,24.51Z"/><path class="cls-2" d="M3.67,56.63H.56V55h8v1.59H5.4v8.2H3.67Z"/><path class="cls-2" d="M21.82,60.67V55h1.72v5.57c0,1.81.94,2.79,2.48,2.79s2.46-.92,2.46-2.73V55H30.2v5.55C30.2,63.52,28.55,65,26,65S21.82,63.52,21.82,60.67Z"/><path class="cls-2" d="M44.21,55h4.37a3.91,3.91,0,0,1,2.82,1,3,3,0,0,1,.81,2.11v0a2.93,2.93,0,0,1-2.33,3l2.64,3.71h-2l-2.4-3.41H45.93v3.41H44.21Zm4.24,4.85c1.23,0,2-.64,2-1.64v0c0-1-.75-1.63-2-1.63H45.93v3.29Z"/><path class="cls-2" d="M66.07,55h1.72v9.79H66.07Z"/><path class="cls-2" d="M81.4,63.4l1-1.23a4.54,4.54,0,0,0,3.1,1.28c1.06,0,1.73-.49,1.73-1.24v0c0-.7-.39-1.08-2.21-1.5-2.08-.5-3.26-1.12-3.26-2.93v0c0-1.68,1.4-2.84,3.34-2.84a5.44,5.44,0,0,1,3.56,1.23l-.93,1.3a4.42,4.42,0,0,0-2.65-1c-1,0-1.6.52-1.6,1.16v0c0,.76.45,1.09,2.32,1.54C87.9,59.65,89,60.4,89,62v0c0,1.83-1.44,2.92-3.5,2.92A6,6,0,0,1,81.4,63.4Z"/><path class="cls-2" d="M102.66,55h1.83l3,4.63,3-4.63h1.83v9.79h-1.72v-7l-3.09,4.61h-.06l-3.06-4.59v7h-1.69Z"/><path class="cls-2" d="M126,60v0a5.13,5.13,0,0,1,10.25,0v0A5.13,5.13,0,0,1,126,60Zm8.44,0v0a3.35,3.35,0,0,0-3.33-3.48,3.31,3.31,0,0,0-3.3,3.46v0a3.35,3.35,0,0,0,3.33,3.49A3.32,3.32,0,0,0,134.45,60Z"/><path class="cls-2" d="M165.83,55h7.26v1.54h-5.54v2.54h4.91v1.54h-4.91v2.63h5.61v1.54h-7.33Z"/><path class="cls-2" d="M186.19,63.4l1-1.23a4.54,4.54,0,0,0,3.09,1.28c1.07,0,1.74-.49,1.74-1.24v0c0-.7-.39-1.08-2.21-1.5-2.09-.5-3.26-1.12-3.26-2.93v0c0-1.68,1.4-2.84,3.34-2.84a5.39,5.39,0,0,1,3.55,1.23l-.92,1.3a4.43,4.43,0,0,0-2.66-1c-1,0-1.59.52-1.59,1.16v0c0,.76.45,1.09,2.32,1.54,2.07.5,3.15,1.25,3.15,2.87v0c0,1.83-1.44,2.92-3.5,2.92A6,6,0,0,1,186.19,63.4Z"/><path class="cls-2" d="M207.45,55h3.87c2.28,0,3.72,1.3,3.72,3.27v0c0,2.2-1.77,3.34-3.92,3.34h-1.94v3.15h-1.73Zm3.73,5.09c1.3,0,2.11-.73,2.11-1.75v0c0-1.15-.83-1.75-2.11-1.75h-2v3.53Z"/><path class="cls-2" d="M230.94,55h1.59l4.31,9.86H235l-1-2.36H229.4l-1,2.36h-1.76Zm2.46,6L231.71,57,230,60.94Z"/><path class="cls-2" d="M249.13,60v0a5,5,0,0,1,5.05-5.06A5.13,5.13,0,0,1,258,56.39l-1.11,1.28a3.88,3.88,0,0,0-2.74-1.22,3.28,3.28,0,0,0-3.23,3.46v0a3.31,3.31,0,0,0,3.23,3.49A3.82,3.82,0,0,0,257,62.14l1.11,1.12a5,5,0,0,1-4,1.74A4.93,4.93,0,0,1,249.13,60Z"/><path class="cls-2" d="M271.64,55h1.72v9.79h-1.72Z"/><path class="cls-2" d="M291.09,55h1.6L297,64.83h-1.82l-1-2.36h-4.63l-1,2.36h-1.76Zm2.46,6L291.86,57l-1.68,3.92Z"/><path class="cls-2" d="M310.32,55H312v8.22h5.15v1.57h-6.87Z"/></g></g></svg>